<svg width="24" height="24" viewBox="0 0 50 50" fill="none" xmlns="http://www.w3.org/2000/svg">
<g clip-path="url(#clip0_9_9)">
<path d="M17.3914 16.3044V50H29.3479V29.3478H26.087V46.7391H20.6522V19.5652H26.087V22.8261H29.3479V19.5652H43.4783V16.3044H17.3914Z" fill="#CDD6F4"/>
<path d="M46.7392 22.8261V46.7392H41.3044V29.3479H38.0435V50H50V22.8261H46.7392Z" fill="#CDD6F4"/>
<path d="M0 16.3044V50H13.0435V16.3044H0ZM9.78262 46.7391H3.26084V19.5652H9.78262V46.7391Z" fill="#CDD6F4"/>
<path d="M9.78264 0H3.26086V3.26084H9.78264V0Z" fill="#CDD6F4"/>
<path d="M9.78264 9.78262H3.26086V13.0435H9.78264V9.78262Z" fill="#CDD6F4"/>
<path d="M3.26084 3.26083H0V9.78261H3.26084V3.26083Z" fill="#CDD6F4"/>
<path d="M13.0434 3.26083H9.78259V9.78261H13.0434V3.26083Z" fill="#CDD6F4"/>
<path d="M46.7391 19.5652H43.4783V22.8261H46.7391V19.5652Z" fill="#CDD6F4"/>
<path d="M38.0435 26.0869H29.3479V29.3478H38.0435V26.0869Z" fill="#CDD6F4"/>
</g>
<defs>
<clipPath id="clip0_9_9">
<rect width="50" height="50" fill="white"/>
</clipPath>
</defs>
</svg>
