<?xml version="1.0" encoding="UTF-8" standalone="no"?>
<svg
   width="24"
   height="24"
   viewBox="0 0 50 15"
   id="svg1"
   xmlns="http://www.w3.org/2000/svg"
   fill="#CDD6F4"
>
  <defs
     id="defs1" />
  <path
     d="M 47.9263,0 H 45.8348 43.7595 41.668 39.5927 37.5012 35.4259 33.3344 31.2591 29.1676 27.0923 25.0008 V 0.00271 H 22.9098 20.8346 18.743 16.6677 14.5768 12.5015 10.41 8.33469 6.2437 4.16843 2.07527 0 v 2.08119 2.0862 2.0806 2.0862 2.0806 2.0867 2.0807 2.0866 2.091 2.0753 2.091 2.0753 2.0915 2.0812 2.0861 2.0807 h 2.07527 2.09153 2.07528 2.09098 2.07524 2.0916 2.0752 2.091 2.0753 2.0915 2.0753 2.0926 v -0.0027 h 2.091 2.0753 2.0915 2.0753 2.091 2.0752 2.0916 2.0752 2.091 2.0753 2.0915 H 50 V 31.2597 29.1736 27.0929 25.0019 22.9266 20.8351 18.7598 16.6683 14.5822 12.5015 10.4154 8.3341 6.248 4.1668 2.0807 0 Z m -2.092,6.248 H 43.759 v 2.0861 h -2.091 v 2.0813 h -2.0753 v 2.0861 h -2.0915 v 2.0807 h -2.0753 v 2.0861 2.0915 h 2.0753 v 2.0753 h 2.0915 v 2.0915 h 2.0753 v 2.0753 h 2.091 v 2.091 h 2.0753 v 2.0807 H 43.759 41.668 v -2.0807 h -2.0753 v -2.091 h -2.0915 v -2.0753 h -2.0753 v -2.0915 h -2.0915 v -2.0753 h -2.0753 v 2.0753 h -2.0915 v 2.0915 h -2.0753 v 2.0753 h -2.0915 v 0.0022 h -2.091 v -2.0753 h -2.0752 v -2.091 H 18.743 v -2.0753 h -2.0753 v 2.0753 h -2.0909 v 2.091 h -2.0753 v 2.0753 H 10.41 v 2.0915 H 8.33469 v 2.0812 H 6.2437 4.16843 V 27.0956 H 6.2437 V 25.0041 H 8.33469 V 22.9288 H 10.41 v -2.091 h 2.0915 v -2.0753 h 2.0753 v -2.091 -2.0866 H 12.5015 V 12.5042 H 10.41 V 10.4175 H 8.33469 V 8.3369 H 6.2437 V 6.2507 H 4.16843 V 4.1701 H 6.2437 8.33469 V 6.2507 H 10.41 v 2.0862 h 2.0915 v 2.0806 h 2.0753 v 2.0867 h 2.0909 v 2.0807 h 2.0753 v 2.0866 h 2.0916 v 2.091 h 2.0752 v 2.0753 h 2.091 v -0.0027 h 2.091 v -2.0753 h 2.0753 v -2.0915 h 2.0915 v -2.0861 h 2.0753 v -2.0807 h 2.091 v -2.0861 h 2.0752 V 8.3341 h 2.0916 V 6.248 h 2.0752 V 4.1668 h 2.091 2.0753 V 6.248 Z"
     id="path1" />
</svg>
