<?xml version="1.0" ?><svg data-name="Layer 1" id="Layer_1" width="24px" height="24px" viewBox="0 0 843.14 568.62" xmlns="http://www.w3.org/2000/svg"><defs><style>.cls-1{fill:#fa6d62;}</style></defs><title/><path class="cls-1" d="M857.46,354.09V334.48H837.85V314.87h-19.6V295.26H798.64v-19.6H112.36v19.6H92.75v19.61H73.15v19.61H53.54v19.61H33.93V765.85H53.54v19.61H73.15v19.61h19.6v19.61h19.61v19.6H798.64v-19.6h19.61V805.07h19.6V785.46h19.61V765.85h19.61V354.09ZM367.26,648.21V452.13h39.22v19.6H445.7v19.61h39.21V511h39.22v19.61h39.21v19.61H583v19.6H563.34v19.61H524.13V609H484.91V628.6H445.7v19.61H406.48v19.6H367.26Z" transform="translate(-33.93 -275.66)"/></svg>
